<svg xmlns="http://www.w3.org/2000/svg" width="24" height="24" viewBox="0 0 24 24">
  <title>App Developer</title>
  <g>
    <path d="M24,13V9H22.706a6.929,6.929,0,0,0-.548-1.33l.913-.913L20.243,3.929l-.913.913A6.929,6.929,0,0,0,18,4.294V3H14V4.294a6.929,6.929,0,0,0-1.33.548l-.913-.913L8.929,6.757l.913.913A6.929,6.929,0,0,0,9.294,9H8v4H9.294a6.929,6.929,0,0,0,.548,1.33l-.913.913,2.828,2.828.913-.913a6.929,6.929,0,0,0,1.33.548V19h4V17.706a6.929,6.929,0,0,0,1.33-.548l.913.913,2.828-2.828-.913-.913A6.929,6.929,0,0,0,22.706,13Z" fill="#6dedd4"/>
    <circle cx="16" cy="11" r="4" fill="#fff"/>
    <path d="M16,2H0A2.008,2.008,0,0,1,2,0H14A2.008,2.008,0,0,1,16,2Z" fill="#468ff1"/>
    <path d="M0,20H16a0,0,0,0,1,0,0v2a2,2,0,0,1-2,2H2a2,2,0,0,1-2-2V20A0,0,0,0,1,0,20Z" fill="#468ff1"/>
    <rect y="2" width="16" height="18" fill="#61c5fa"/>
    <polygon points="4.293 11.707 1.586 9 4.293 6.293 5.707 7.707 4.414 9 5.707 10.293 4.293 11.707" fill="#fff"/>
    <polygon points="11.707 11.707 10.293 10.293 11.586 9 10.293 7.707 11.707 6.293 14.414 9 11.707 11.707" fill="#fff"/>
    <rect x="3.877" y="8" width="8.246" height="2" transform="translate(-2.672 14.577) rotate(-75.957)" fill="#fff"/>
    <rect x="6" y="21" width="4" height="2" fill="#fff"/>
  </g>
</svg>
