<svg xmlns="http://www.w3.org/2000/svg" width="24" height="24" viewBox="0 0 24 24">
  <title>Book</title>
  <g>
    <path d="M2,22V2A2,2,0,0,1,4,0H22V20H5" fill="#61c5fa"/>
    <polygon points="8.293 9.707 5.586 7 8.293 4.293 9.707 5.707 8.414 7 9.707 8.293 8.293 9.707" fill="#fff"/>
    <polygon points="15.707 9.707 14.293 8.293 15.586 7 14.293 5.707 15.707 4.293 18.414 7 15.707 9.707" fill="#fff"/>
    <rect x="7.877" y="6" width="8.246" height="2" transform="translate(2.297 16.943) rotate(-75.957)" fill="#fff"/>
    <path d="M22,24H4a2,2,0,0,1,0-4H22Z" fill="#3870cf"/>
    <rect x="6" y="14" width="12" height="4" fill="#6dedd4"/>
  </g>
</svg>
