<svg xmlns="http://www.w3.org/2000/svg" width="24" height="24" viewBox="0 0 24 24">
  <title>Brain</title>
  <g>
    <path d="M12,.77V23.46a3.98,3.98,0,0,1-4.8-.61,5.005,5.005,0,0,1-5.8-6.82,3.991,3.991,0,0,1-.23-5.86A4,4,0,0,1,4.01,5.13.57.57,0,0,1,4,5,3,3,0,0,1,7,2a1.087,1.087,0,0,1,.18.01A2.984,2.984,0,0,1,12,.77Z" fill="#61c5fa"/>
    <path d="M12,.77V23.46a3.98,3.98,0,0,0,4.8-.61,5.005,5.005,0,0,0,5.8-6.82,3.991,3.991,0,0,0,.23-5.86,4,4,0,0,0-2.84-5.04A.57.57,0,0,0,20,5a3,3,0,0,0-3-3,1.087,1.087,0,0,0-.18.01A2.984,2.984,0,0,0,12,.77Z" fill="#468ff1"/>
    <circle cx="12" cy="13" r="8" fill="#6dedd4"/>
    <polygon points="8.293 15.707 5.586 13 8.293 10.293 9.707 11.707 8.414 13 9.707 14.293 8.293 15.707" fill="#fff"/>
    <polygon points="15.707 15.707 14.293 14.293 15.586 13 14.293 11.707 15.707 10.293 18.414 13 15.707 15.707" fill="#fff"/>
    <rect x="7.877" y="12" width="8.246" height="2" transform="translate(-3.523 21.487) rotate(-75.957)" fill="#fff"/>
  </g>
</svg>
