<svg xmlns="http://www.w3.org/2000/svg" width="24" height="24" viewBox="0 0 24 24">
  <title>Chip</title>
  <g>
    <rect y="11" width="4" height="2" fill="#6dedd4"/>
    <rect x="20" y="11" width="4" height="2" fill="#6dedd4"/>
    <circle cx="3" cy="22" r="2" fill="#6dedd4"/>
    <polygon points="8 23 3 23 3 21 6 21 6 17 8 17 8 23" fill="#6dedd4"/>
    <circle cx="21" cy="22" r="2" fill="#6dedd4"/>
    <polygon points="21 23 16 23 16 17 18 17 18 21 21 21 21 23" fill="#6dedd4"/>
    <rect x="11" y="17" width="2" height="4" fill="#6dedd4"/>
    <circle cx="12" cy="22" r="2" fill="#6dedd4"/>
    <circle cx="3" cy="2" r="2" fill="#6dedd4"/>
    <polygon points="8 7 6 7 6 3 3 3 3 1 8 1 8 7" fill="#6dedd4"/>
    <circle cx="21" cy="2" r="2" fill="#6dedd4"/>
    <polygon points="18 7 16 7 16 1 21 1 21 3 18 3 18 7" fill="#6dedd4"/>
    <rect x="11" y="3" width="2" height="4" fill="#6dedd4"/>
    <rect x="3" y="6" width="18" height="12" fill="#468ff1"/>
    <polygon points="8.293 14.707 5.586 12 8.293 9.293 9.707 10.707 8.414 12 9.707 13.293 8.293 14.707" fill="#fff"/>
    <polygon points="15.707 14.707 14.293 13.293 15.586 12 14.293 10.707 15.707 9.293 18.414 12 15.707 14.707" fill="#fff"/>
    <rect x="7.877" y="11" width="8.246" height="2" transform="translate(-2.553 20.73) rotate(-75.957)" fill="#fff"/>
    <circle cx="12" cy="2" r="2" fill="#6dedd4"/>
  </g>
</svg>
