<svg xmlns="http://www.w3.org/2000/svg" width="24" height="24" viewBox="0 0 24 24">
  <title>Cloud code</title>
  <g>
    <path d="M24,11a5,5,0,0,1-5,5H5A5,5,0,0,1,3.03,6.4,2.994,2.994,0,0,1,6.75,3.1a6,6,0,0,1,10.5,0,2.994,2.994,0,0,1,3.72,3.3A5.016,5.016,0,0,1,24,11Z" fill="#61c5fa"/>
    <circle cx="12" cy="16" r="8" fill="#6dedd4"/>
    <polygon points="8.293 18.707 5.586 16 8.293 13.293 9.707 14.707 8.414 16 9.707 17.293 8.293 18.707" fill="#fff"/>
    <polygon points="15.707 18.707 14.293 17.293 15.586 16 14.293 14.707 15.707 13.293 18.414 16 15.707 18.707" fill="#fff"/>
    <rect x="7.877" y="15" width="8.246" height="2" transform="translate(-6.434 23.759) rotate(-75.957)" fill="#fff"/>
  </g>
</svg>
