<svg xmlns="http://www.w3.org/2000/svg" width="24" height="24" viewBox="0 0 24 24">
  <title>Code Document</title>
  <g>
    <polygon points="23 4 23 24 3 24 3 0 19 0 23 4" fill="#61c5fa"/>
    <polygon points="23 4 19 4 19 0 23 4" fill="#468ff1"/>
    <rect x="1" y="4" width="9" height="4" fill="#6dedd4"/>
    <path d="M12,21H11a3,3,0,0,1-3-3,1,1,0,0,0-1-1V15a1,1,0,0,0,1-1,3,3,0,0,1,3-3h1v2H11a1,1,0,0,0-1,1,2.987,2.987,0,0,1-.766,2A2.987,2.987,0,0,1,10,18a1,1,0,0,0,1,1h1Z" fill="#fff"/>
    <path d="M15,21H14V19h1a1,1,0,0,0,1-1,2.987,2.987,0,0,1,.766-2A2.987,2.987,0,0,1,16,14a1,1,0,0,0-1-1H14V11h1a3,3,0,0,1,3,3,1,1,0,0,0,1,1v2a1,1,0,0,0-1,1A3,3,0,0,1,15,21Z" fill="#fff"/>
  </g>
</svg>
