<svg xmlns="http://www.w3.org/2000/svg" width="24" height="24" viewBox="0 0 24 24">
  <title>Coding hand</title>
  <g>
    <polygon points="11.293 7.707 8.586 5 11.293 2.293 12.707 3.707 11.414 5 12.707 6.293 11.293 7.707" fill="#6dedd4"/>
    <polygon points="18.707 7.707 17.293 6.293 18.586 5 17.293 3.707 18.707 2.293 21.414 5 18.707 7.707" fill="#6dedd4"/>
    <rect x="10.877" y="4" width="8.246" height="2" transform="translate(6.51 18.338) rotate(-75.957)" fill="#6dedd4"/>
    <path d="M11.9,23H0V13l.645-.43A9.341,9.341,0,0,1,5.829,11c2.077,0,2.292,1,4.3,1H12a2,2,0,0,1,0,4H8v2h5l8.121-5.414a1.842,1.842,0,0,1,1.873-.089,1.821,1.821,0,0,1,.323,3.05l-7.674,6.138A6,6,0,0,1,11.9,23Z" fill="#61c5fa"/>
  </g>
</svg>
