<svg xmlns="http://www.w3.org/2000/svg" width="24" height="24" viewBox="0 0 24 24">
  <title>Coffee</title>
  <g>
    <path d="M18,12H17V10H5v9a2,2,0,0,0,2,2h8a2,2,0,0,0,2-2V18h1a3,3,0,0,0,0-6Zm0,4H17V14h1a1,1,0,0,1,0,2Z" fill="#61c5fa"/>
    <polygon points="7.293 6.95 4.586 4.243 7.293 1.536 8.707 2.95 7.414 4.243 8.707 5.536 7.293 6.95" fill="#6dedd4"/>
    <polygon points="14.707 6.95 13.293 5.536 14.586 4.243 13.293 2.95 14.707 1.536 17.414 4.243 14.707 6.95" fill="#6dedd4"/>
    <rect x="6.877" y="3.243" width="8.246" height="2" transform="translate(4.215 13.884) rotate(-75.957)" fill="#6dedd4"/>
    <rect x="3" y="20" width="16" height="2" fill="#468ff1"/>
    <polygon points="18 22 16.91 24 5.09 24 4 22 18 22" fill="#3870cf"/>
  </g>
</svg>
