<svg xmlns="http://www.w3.org/2000/svg" width="24" height="24" viewBox="0 0 24 24">
  <title>Configuration</title>
  <g>
    <path d="M24,15V9H21.541a10.01,10.01,0,0,0-.678-1.621l1.744-1.743L18.364,1.393,16.621,3.137A10.01,10.01,0,0,0,15,2.459V0H9V2.459a10.01,10.01,0,0,0-1.621.678L5.636,1.393,1.393,5.636,3.137,7.379A10.01,10.01,0,0,0,2.459,9H0v6H2.459a10.01,10.01,0,0,0,.678,1.621L1.393,18.364l4.243,4.243,1.743-1.744A10.01,10.01,0,0,0,9,21.541V24h6V21.541a10.01,10.01,0,0,0,1.621-.678l1.743,1.744,4.243-4.243-1.744-1.743A10.01,10.01,0,0,0,21.541,15Z" fill="#61c5fa"/>
    <circle cx="12" cy="12" r="8" fill="#6dedd4"/>
    <polygon points="8.293 14.707 5.586 12 8.293 9.293 9.707 10.707 8.414 12 9.707 13.293 8.293 14.707" fill="#fff"/>
    <polygon points="15.707 14.707 14.293 13.293 15.586 12 14.293 10.707 15.707 9.293 18.414 12 15.707 14.707" fill="#fff"/>
    <rect x="7.877" y="11" width="8.246" height="2" transform="translate(-2.553 20.73) rotate(-75.957)" fill="#fff"/>
  </g>
</svg>
