<svg xmlns="http://www.w3.org/2000/svg" width="24" height="24" viewBox="0 0 24 24">
  <title>Data Code</title>
  <g>
    <ellipse cx="8" cy="3" rx="8" ry="3" fill="#6dedd4"/>
    <path d="M16,3V8c0,1.66-3.58,3-8,3S0,9.66,0,8V3C0,5.764,9.1,7.033,13.97,5,15.23,4.47,16,3.77,16,3Z" fill="#61c5fa"/>
    <path d="M16,8v5c0,1.66-3.58,3-8,3s-8-1.34-8-3V8c0,2.764,9.1,4.033,13.97,2C15.23,9.47,16,8.77,16,8Z" fill="#468ff1"/>
    <path d="M16,13v5c0,1.66-3.58,3-8,3s-8-1.34-8-3V13c0,2.764,9.1,4.033,13.97,2C15.23,14.47,16,13.77,16,13Z" fill="#3870cf"/>
    <circle cx="16" cy="16" r="8" fill="#6dedd4"/>
    <polygon points="12.293 18.707 9.586 16 12.293 13.293 13.707 14.707 12.414 16 13.707 17.293 12.293 18.707" fill="#fff"/>
    <polygon points="19.707 18.707 18.293 17.293 19.586 16 18.293 14.707 19.707 13.293 22.414 16 19.707 18.707" fill="#fff"/>
    <rect x="11.877" y="15" width="8.246" height="2" transform="translate(-3.404 27.639) rotate(-75.957)" fill="#fff"/>
  </g>
</svg>
