<svg xmlns="http://www.w3.org/2000/svg" width="24" height="24" viewBox="0 0 24 24">
  <title>Developer</title>
  <g>
    <polygon points="18 14 18 21 0 21 0 14 7 11 11 11 18 14" fill="#3870cf"/>
    <path d="M9,14a2.008,2.008,0,0,1-2-2V11h4v1A2,2,0,0,1,9,14Z" fill="#468ff1"/>
    <path d="M7,0h4a3,3,0,0,1,3,3V6a0,0,0,0,1,0,0H4A0,0,0,0,1,4,6V3A3,3,0,0,1,7,0Z" fill="#3870cf"/>
    <path d="M9,12A4,4,0,0,1,5,8V4h8V8A4,4,0,0,1,9,12Z" fill="#61c5fa"/>
    <polygon points="13.879 22.464 11.172 19.757 13.879 17.05 15.293 18.464 14 19.757 15.293 21.05 13.879 22.464" fill="#6dedd4"/>
    <polygon points="21.293 22.464 19.879 21.05 21.172 19.757 19.879 18.464 21.293 17.05 24 19.757 21.293 22.464" fill="#6dedd4"/>
    <rect x="13.463" y="18.757" width="8.246" height="2" transform="translate(-5.848 32.024) rotate(-75.957)" fill="#6dedd4"/>
    <path d="M4.5,5H5A0,0,0,0,1,5,5V8A0,0,0,0,1,5,8H4.5A1.5,1.5,0,0,1,3,6.5v0A1.5,1.5,0,0,1,4.5,5Z" fill="#468ff1"/>
    <path d="M14.5,5H15a0,0,0,0,1,0,0V8a0,0,0,0,1,0,0h-.5A1.5,1.5,0,0,1,13,6.5v0A1.5,1.5,0,0,1,14.5,5Z" transform="translate(28 13) rotate(-180)" fill="#468ff1"/>
  </g>
</svg>
