<svg xmlns="http://www.w3.org/2000/svg" width="24" height="24" viewBox="0 0 24 24">
  <title>Error</title>
  <g>
    <rect width="24" height="6" fill="#3870cf"/>
    <rect y="6" width="24" height="13" fill="#61c5fa"/>
    <rect x="2" y="2" width="2" height="2" fill="#fff"/>
    <rect x="6" y="2" width="2" height="2" fill="#fff"/>
    <rect x="10" y="2" width="2" height="2" fill="#fff"/>
    <rect y="6" width="8" height="13" fill="#468ff1"/>
    <rect x="2" y="9" width="4" height="2" fill="#fff"/>
    <rect x="10" y="9" width="4" height="2" fill="#fff"/>
    <rect x="18" y="14" width="4" height="2" fill="#fff"/>
    <rect x="16" y="9" width="6" height="2" fill="#fff"/>
    <rect x="2" y="14" width="4" height="2" fill="#fff"/>
    <circle cx="12" cy="19" r="5" fill="#6dedd4"/>
    <polygon points="14.707 17.707 13.293 16.293 12 17.586 10.707 16.293 9.293 17.707 10.586 19 9.293 20.293 10.707 21.707 12 20.414 13.293 21.707 14.707 20.293 13.414 19 14.707 17.707" fill="#fff"/>
  </g>
</svg>
