<svg xmlns="http://www.w3.org/2000/svg" width="24" height="24" viewBox="0 0 24 24">
  <title>Folder Code</title>
  <g>
    <path d="M0,1H8l2,2H22V23H2a2,2,0,0,1-2-2Z" fill="#468ff1"/>
    <path d="M24,5V21a2.006,2.006,0,0,1-2,2H2a2.006,2.006,0,0,0,2-2V5Z" fill="#61c5fa"/>
    <polygon points="9.293 17.707 5.586 14 9.293 10.293 10.707 11.707 8.414 14 10.707 16.293 9.293 17.707" fill="#fff"/>
    <polygon points="18.707 17.707 17.293 16.293 19.586 14 17.293 11.707 18.707 10.293 22.414 14 18.707 17.707" fill="#fff"/>
    <rect x="8.901" y="13" width="10.198" height="2" transform="translate(-2.476 24.979) rotate(-78.679)" fill="#fff"/>
    <polygon points="8 1 10 3 15 3 13 1 8 1" fill="#6dedd4"/>
  </g>
</svg>
