<svg xmlns="http://www.w3.org/2000/svg" width="24" height="24" viewBox="0 0 24 24">
  <title>Framework</title>
  <g>
    <path d="M19.837,4.163,12,.918,4.163,4.163.917,12l3.246,7.837L12,23.082l7.837-3.245L23.083,12ZM20.5,11H14.414L18.72,6.694ZM11,20.5,6.694,18.72,11,14.414ZM6.694,5.28,11,3.5v6.09ZM13,14.414l4.306,4.306L13,20.5ZM13,3.5,17.306,5.28,13,9.586Zm-7.72,3.2L9.586,11H3.5ZM3.5,13H9.586L5.28,17.306ZM18.72,17.306,14.414,13H20.5Z" fill="#61c5fa"/>
    <circle cx="12" cy="12" r="7" fill="#6dedd4"/>
    <path d="M11,16h-.5A2.5,2.5,0,0,1,8,13.5a.5.5,0,0,0-.5-.5H7V11h.5a.5.5,0,0,0,.5-.5A2.5,2.5,0,0,1,10.5,8H11v2h-.5a.5.5,0,0,0-.5.5A2.491,2.491,0,0,1,9.5,12a2.491,2.491,0,0,1,.5,1.5.5.5,0,0,0,.5.5H11Z" fill="#fff"/>
    <path d="M13.5,16H13V14h.5a.5.5,0,0,0,.5-.5,2.491,2.491,0,0,1,.5-1.5,2.491,2.491,0,0,1-.5-1.5.5.5,0,0,0-.5-.5H13V8h.5A2.5,2.5,0,0,1,16,10.5a.5.5,0,0,0,.5.5H17v2h-.5a.5.5,0,0,0-.5.5A2.5,2.5,0,0,1,13.5,16Z" fill="#fff"/>
    <circle cx="12" cy="2" r="2" fill="#468ff1"/>
    <circle cx="12" cy="22" r="2" fill="#468ff1"/>
    <circle cx="4.929" cy="4.929" r="2" fill="#468ff1"/>
    <circle cx="19.071" cy="19.071" r="2" fill="#468ff1"/>
    <circle cx="2" cy="12" r="2" fill="#468ff1"/>
    <circle cx="22" cy="12" r="2" fill="#468ff1"/>
    <circle cx="4.929" cy="19.071" r="2" fill="#468ff1"/>
    <circle cx="19.071" cy="4.929" r="2" fill="#468ff1"/>
  </g>
</svg>
