<svg xmlns="http://www.w3.org/2000/svg" width="24" height="24" viewBox="0 0 24 24">
  <title>Idea</title>
  <g>
    <path d="M21,9A9,9,0,1,0,6.291,15.949,11.41,11.41,0,0,1,9,19h6a10.015,10.015,0,0,1,2.564-2.935A8.97,8.97,0,0,0,21,9Z" fill="#6dedd4"/>
    <rect x="8" y="19" width="8" height="2" fill="#468ff1"/>
    <path d="M12,24a3,3,0,0,1-3-3h6A3,3,0,0,1,12,24Z" fill="#3870cf"/>
    <polygon points="8.293 12.707 4.586 9 8.293 5.293 9.707 6.707 7.414 9 9.707 11.293 8.293 12.707" fill="#fff"/>
    <polygon points="15.707 12.707 14.293 11.293 16.586 9 14.293 6.707 15.707 5.293 19.414 9 15.707 12.707" fill="#fff"/>
    <rect x="6.901" y="8" width="10.198" height="2" transform="translate(0.819 19) rotate(-78.679)" fill="#fff"/>
  </g>
</svg>
