<svg xmlns="http://www.w3.org/2000/svg" width="24" height="24" viewBox="0 0 24 24">
  <title>Keyboard</title>
  <g>
    <rect y="10" width="24" height="14" fill="#61c5fa"/>
    <polygon points="8.293 6.95 5.586 4.243 8.293 1.536 9.707 2.95 8.414 4.243 9.707 5.536 8.293 6.95" fill="#6dedd4"/>
    <polygon points="15.707 6.95 14.293 5.536 15.586 4.243 14.293 2.95 15.707 1.536 18.414 4.243 15.707 6.95" fill="#6dedd4"/>
    <rect x="7.877" y="3.243" width="8.246" height="2" transform="translate(4.972 14.855) rotate(-75.957)" fill="#6dedd4"/>
    <rect x="3" y="12" width="2" height="2" fill="#468ff1"/>
    <rect x="7" y="12" width="2" height="2" fill="#468ff1"/>
    <rect x="11" y="12" width="2" height="2" fill="#468ff1"/>
    <rect x="15" y="12" width="2" height="2" fill="#468ff1"/>
    <rect x="3" y="16" width="2" height="2" fill="#468ff1"/>
    <rect x="7" y="16" width="2" height="2" fill="#468ff1"/>
    <rect x="11" y="16" width="2" height="2" fill="#468ff1"/>
    <path d="M19,12v4H15v2h6V12Z" fill="#468ff1"/>
    <rect x="3" y="20" width="2" height="2" fill="#468ff1"/>
    <rect x="7" y="20" width="10" height="2" fill="#468ff1"/>
    <rect x="19" y="20" width="2" height="2" fill="#468ff1"/>
  </g>
</svg>
