<svg xmlns="http://www.w3.org/2000/svg" width="24" height="24" viewBox="0 0 24 24">
  <title>Mobile App</title>
  <g>
    <path d="M20,2H4A2.008,2.008,0,0,1,6,0H18A2.008,2.008,0,0,1,20,2Z" fill="#468ff1"/>
    <path d="M4,20H20a0,0,0,0,1,0,0v2a2,2,0,0,1-2,2H6a2,2,0,0,1-2-2V20A0,0,0,0,1,4,20Z" fill="#468ff1"/>
    <rect x="4" y="2" width="16" height="18" fill="#61c5fa"/>
    <rect x="10" y="21" width="4" height="2" fill="#fff"/>
    <rect x="6" y="4" width="12" height="8" fill="#6dedd4"/>
    <polygon points="16.447 6.895 15.553 5.105 12 6.882 8.447 5.105 7.553 6.895 9.764 8 7.553 9.105 8.447 10.895 12 9.118 15.553 10.895 16.447 9.105 14.236 8 16.447 6.895" fill="#fff"/>
    <rect x="6" y="15" width="8" height="2" fill="#fff"/>
  </g>
</svg>
