<svg xmlns="http://www.w3.org/2000/svg" width="24" height="24" viewBox="0 0 24 24">
  <title>Robot Ai</title>
  <g>
    <rect x="4" width="16" height="14" fill="#61c5fa"/>
    <polygon points="8.293 9.707 5.586 7 8.293 4.293 9.707 5.707 8.414 7 9.707 8.293 8.293 9.707" fill="#fff"/>
    <polygon points="15.707 9.707 14.293 8.293 15.586 7 14.293 5.707 15.707 4.293 18.414 7 15.707 9.707" fill="#fff"/>
    <rect x="7.877" y="6" width="8.246" height="2" transform="translate(2.297 16.943) rotate(-75.957)" fill="#fff"/>
    <rect x="1" y="3" width="3" height="8" fill="#468ff1"/>
    <rect x="20" y="3" width="3" height="8" transform="translate(43 14) rotate(180)" fill="#468ff1"/>
    <rect x="8" y="14" width="8" height="2" fill="#6dedd4"/>
    <rect x="3" y="16" width="18" height="8" fill="#468ff1"/>
    <rect y="18" width="3" height="6" fill="#3870cf"/>
    <rect x="21" y="18" width="3" height="6" fill="#3870cf"/>
    <rect x="6" y="19" width="12" height="5" fill="#61c5fa"/>
  </g>
</svg>
