<svg xmlns="http://www.w3.org/2000/svg" width="24" height="24" viewBox="0 0 24 24">
  <title>Script</title>
  <g>
    <path d="M2,0H20a2,2,0,0,1,2,2V24H6a2,2,0,0,1-2-2V4" fill="#61c5fa"/>
    <path d="M4,4H0V2A2,2,0,0,1,4,2Z" fill="#468ff1"/>
    <polygon points="9.293 9.707 6.586 7 9.293 4.293 10.707 5.707 9.414 7 10.707 8.293 9.293 9.707" fill="#fff"/>
    <polygon points="16.707 9.707 15.293 8.293 16.586 7 15.293 5.707 16.707 4.293 19.414 7 16.707 9.707" fill="#fff"/>
    <rect x="8.877" y="6" width="8.246" height="2" transform="translate(3.055 17.913) rotate(-75.957)" fill="#fff"/>
    <path d="M24,20v2a2.006,2.006,0,0,1-2,2H6a2.006,2.006,0,0,0,2-2V20Z" fill="#468ff1"/>
    <rect x="7" y="14" width="12" height="2" fill="#6dedd4"/>
  </g>
</svg>
