<svg xmlns="http://www.w3.org/2000/svg" width="24" height="24" viewBox="0 0 24 24">
  <title>Secure lock</title>
  <g>
    <path d="M18,13H16V6A4,4,0,0,0,8,6v7H6V6A6,6,0,0,1,18,6Z" fill="#6dedd4"/>
    <rect x="3" y="10" width="18" height="14" fill="#61c5fa"/>
    <polygon points="8.293 19.707 5.586 17 8.293 14.293 9.707 15.707 8.414 17 9.707 18.293 8.293 19.707" fill="#fff"/>
    <polygon points="15.707 19.707 14.293 18.293 15.586 17 14.293 15.707 15.707 14.293 18.414 17 15.707 19.707" fill="#fff"/>
    <rect x="7.877" y="16" width="8.246" height="2" transform="translate(-7.404 24.516) rotate(-75.957)" fill="#fff"/>
  </g>
</svg>
