<svg xmlns="http://www.w3.org/2000/svg" width="24" height="24" viewBox="0 0 24 24">
  <title>Shield</title>
  <g>
    <g>
      <path d="M23,4.59V7.85A17.351,17.351,0,0,1,12,24l-.01-.01A17.343,17.343,0,0,1,1,7.85V4.59L5.59,0H18.41Z" fill="#6dedd4"/>
      <path d="M12.006,21.826A15.25,15.25,0,0,1,3,7.85V5.418L6.418,2H17.582L21,5.418V7.85A15.255,15.255,0,0,1,12.006,21.826Z" fill="#61c5fa"/>
    </g>
    <polygon points="8.293 13.707 5.586 11 8.293 8.293 9.707 9.707 8.414 11 9.707 12.293 8.293 13.707" fill="#fff"/>
    <polygon points="15.707 13.707 14.293 12.293 15.586 11 14.293 9.707 15.707 8.293 18.414 11 15.707 13.707" fill="#fff"/>
    <rect x="7.877" y="10" width="8.246" height="2" transform="translate(-1.583 19.972) rotate(-75.957)" fill="#fff"/>
  </g>
</svg>
