<svg xmlns="http://www.w3.org/2000/svg" width="24" height="24" viewBox="0 0 24 24">
  <title>Structure</title>
  <g>
    <polygon points="4 18 2 18 2 7 5 7 5 9 4 9 4 18" fill="#6dedd4"/>
    <polygon points="22 18 20 18 20 9 19 9 19 7 22 7 22 18" fill="#6dedd4"/>
    <rect x="11" y="14" width="2" height="6" fill="#6dedd4"/>
    <circle cx="12" cy="8" r="8" fill="#468ff1"/>
    <path d="M11,13H10a3,3,0,0,1-3-3A1,1,0,0,0,6,9V7A1,1,0,0,0,7,6a3,3,0,0,1,3-3h1V5H10A1,1,0,0,0,9,6a2.987,2.987,0,0,1-.766,2A2.987,2.987,0,0,1,9,10a1,1,0,0,0,1,1h1Z" fill="#fff"/>
    <path d="M14,13H13V11h1a1,1,0,0,0,1-1,2.987,2.987,0,0,1,.766-2A2.987,2.987,0,0,1,15,6a1,1,0,0,0-1-1H13V3h1a3,3,0,0,1,3,3,1,1,0,0,0,1,1V9a1,1,0,0,0-1,1A3,3,0,0,1,14,13Z" fill="#fff"/>
    <rect x="9" y="18" width="6" height="6" fill="#61c5fa"/>
    <rect y="18" width="6" height="6" fill="#61c5fa"/>
    <rect x="18" y="18" width="6" height="6" fill="#61c5fa"/>
  </g>
</svg>
