<svg xmlns="http://www.w3.org/2000/svg" width="24" height="24" viewBox="0 0 24 24">
  <title>View</title>
  <g>
    <circle cx="3" cy="5" r="2" fill="#6dedd4"/>
    <polygon points="8 11 6 11 6 6 3 6 3 4 8 4 8 11" fill="#6dedd4"/>
    <circle cx="21" cy="5" r="2" fill="#6dedd4"/>
    <polygon points="18 11 16 11 16 4 21 4 21 6 18 6 18 11" fill="#6dedd4"/>
    <rect x="11" y="3" width="2" height="6" fill="#6dedd4"/>
    <ellipse cx="12" cy="16" rx="12" ry="8" fill="#61c5fa"/>
    <circle cx="12" cy="16" r="8" fill="#468ff1"/>
    <polygon points="8.293 18.707 5.586 16 8.293 13.293 9.707 14.707 8.414 16 9.707 17.293 8.293 18.707" fill="#fff"/>
    <polygon points="15.707 18.707 14.293 17.293 15.586 16 14.293 14.707 15.707 13.293 18.414 16 15.707 18.707" fill="#fff"/>
    <rect x="7.877" y="15" width="8.246" height="2" transform="translate(-6.434 23.759) rotate(-75.957)" fill="#fff"/>
    <circle cx="12" cy="2" r="2" fill="#6dedd4"/>
  </g>
</svg>
